<svg width="1600" height="500" viewBox="0 0 1600 500" xmlns="http://www.w3.org/2000/svg">
  <!-- Icon shadow -->
  <rect x="92" y="128" width="240" height="240" rx="32" fill="#FF2D5E"/>

  <!-- Main icon -->
  <rect x="70" y="105" width="240" height="240" rx="32"
        fill="none" stroke="#F3F3F3" stroke-width="16"/>

  <!-- Pixel face -->
  <rect x="140" y="175" width="22" height="22" fill="#F3F3F3"/>
  <rect x="218" y="175" width="22" height="22" fill="#F3F3F3"/>

  <rect x="130" y="215" width="22" height="22" fill="#F3F3F3"/>
  <rect x="152" y="237" width="22" height="22" fill="#F3F3F3"/>
  <rect x="174" y="259" width="22" height="22" fill="#F3F3F3"/>
  <rect x="196" y="259" width="22" height="22" fill="#F3F3F3"/>
  <rect x="218" y="237" width="22" height="22" fill="#F3F3F3"/>
  <rect x="240" y="215" width="22" height="22" fill="#F3F3F3"/>

  <!-- Wordmark (vectorized Montserrat Black / wght 900 so it renders
       identically everywhere, independent of which font weights the
       page happens to have loaded) -->
  <g transform="translate(390.00,310) scale(0.180000,-0.180000)">
    <path d="M234 -16Q152 -16 86.0 10.5Q20 37 -24 88L103 238Q131 204 158.0 186.5Q185 169 214 169Q290 169 290 256V522H52V700H523V270Q523 126 449.0 55.0Q375 -16 234 -16Z" fill="#F3F3F3"/>
  </g>
  <g transform="translate(493.32,310) scale(0.180000,-0.180000)">
    <path d="M424.5 -16Q339 -16 266.5 11.0Q194 38 141.0 87.5Q88 137 58.5 203.97142857142856Q29 270.9428571428571 29 350.4714285714286Q29 430 58.503311258278146 496.2857142857143Q88.00662251655629 562.5714285714286 141.00331125827813 612.2857142857142Q194 662 266.42788461538464 689.0Q338.8557692307692 716 424 716Q510 716 582.0 689.0Q654 662 706.9966887417219 612.2857142857142Q759.9933774834437 562.5714285714286 789.4966887417219 496.2857142857143Q819 430 819 350.4714285714286Q819 270.9428571428571 789.5 203.97142857142856Q760 137 707.0 87.5Q654 38 582.0 11.0Q510 -16 424.5 -16ZM423.95522388059703 175Q457 175 485.5 187.0Q514 199 535.5 221.5Q557 244 569.0 276.5Q581 309 581 350Q581 391 569.0 423.5Q557 456 535.5 478.5Q514 501 485.54477611940297 513.0Q457.089552238806 525 424.04477611940297 525Q391 525 362.5 513.0Q334 501 312.5 478.5Q291 456 279.0 423.5Q267 391 267 350Q267 309 279.0 276.5Q291 244 312.5 221.5Q334 199 362.45522388059703 187.0Q390.91044776119406 175 423.95522388059703 175Z" fill="#F3F3F3"/>
  </g>
  <g transform="translate(645.96,310) scale(0.180000,-0.180000)">
    <path d="M420 -16Q335 -16 263.5 10.5Q192 37 139.5 86.0Q87 135 58.0 202.0Q29 269 29 350Q29 431 58.0 498.0Q87 565 140.0 614.0Q193 663 265.5 689.5Q338 716 425 716Q529 716 610.5 681.0Q692 646 745 581L594 448Q561 486 522.5 505.5Q484 525 437 525Q398 525 366.5 513.0Q335 501 313.0 478.0Q291 455 279.0 423.0Q267 391 267 350Q267 311 279.0 278.5Q291 246 313.0 223.0Q335 200 365.5 187.5Q396 175 434 175Q474 175 512.0 188.5Q550 202 593 235L725 73Q661 30 579.0 7.0Q497 -16 420 -16ZM725 73 520 103V369H725Z" fill="#F3F3F3"/>
  </g>
  <g transform="translate(784.38,310) scale(0.180000,-0.180000)">
    <path d="M-19 0 287 700H519L825 0H581L355 588H447L221 0ZM163 122 223 292H545L605 122Z" fill="#F3F3F3"/>
  </g>
  <g transform="translate(929.46,310) scale(0.180000,-0.180000)">
    <path d="M57 0V700H293V183H609V0Z" fill="#F3F3F3"/>
  </g>
  <g transform="translate(1040.52,310) scale(0.180000,-0.180000)">
    <path d="M57 0V700H626V522H289V178H639V0ZM273 270V440H585V270Z" fill="#F3F3F3"/>
  </g>
  <g transform="translate(1161.66,310) scale(0.180000,-0.180000)">
    <path d="M57 0V700H384Q545 700 629.0 629.0Q713 558 713 436Q713 355 674.0 296.5Q635 238 563.5 207.0Q492 176 394 176H188L293 273V0ZM476 0 304 255H554L728 0ZM293 247 188 354H379Q428 354 451.5 376.0Q475 398 475 436Q475 474 451.5 496.0Q428 518 379 518H188L293 625Z" fill="#F3F3F3"/>
  </g>
  <g transform="translate(1295.76,310) scale(0.180000,-0.180000)">
    <path d="M-19 0 287 700H519L825 0H581L355 588H447L221 0ZM163 122 223 292H545L605 122Z" fill="#F3F3F3"/>
  </g>

  <!-- Accent dot -->
  <circle cx="1510" cy="285" r="28" fill="#FF2D5E"/>
</svg>
